<svg width="118" height="118" viewBox="0 0 118 118" fill="none" xmlns="http://www.w3.org/2000/svg">
<mask id="mask0_3244_5809" style="mask-type:luminance" maskUnits="userSpaceOnUse" x="4" y="4" width="110" height="110">
<path d="M58.9997 108.166C65.4575 108.174 71.8533 106.906 77.8195 104.435C83.7857 101.964 89.2048 98.3376 93.7655 93.7655C98.3376 89.2049 101.963 83.7858 104.435 77.8196C106.906 71.8533 108.174 65.4576 108.166 58.9998C108.174 52.542 106.906 46.1462 104.435 40.18C101.963 34.2138 98.3376 28.7947 93.7655 24.234C89.2048 19.6619 83.7857 16.036 77.8195 13.5646C71.8533 11.0933 65.4575 9.82514 58.9997 9.83311C52.5419 9.82514 46.1461 11.0933 40.1799 13.5646C34.2137 16.036 28.7946 19.6619 24.234 24.234C19.6619 28.7947 16.036 34.2138 13.5646 40.18C11.0932 46.1462 9.82508 52.542 9.83305 58.9998C9.82508 65.4576 11.0932 71.8533 13.5646 77.8196C16.036 83.7858 19.6619 89.2049 24.234 93.7655C28.7946 98.3376 34.2137 101.964 40.1799 104.435C46.1461 106.906 52.5419 108.174 58.9997 108.166Z" fill="white" stroke="white" stroke-width="9.83333" stroke-linejoin="round"/>
<path d="M39.333 59.0001L54.083 73.7501L83.583 44.2501" stroke="black" stroke-width="9.83333" stroke-linecap="round" stroke-linejoin="round"/>
</mask>
<g mask="url(#mask0_3244_5809)">
<path d="M0 0.00012207H118V118H0V0.00012207Z" fill="#A5D0F2"/>
</g>
</svg>
