<svg width="60" height="60" viewBox="0 0 60 60" fill="none" xmlns="http://www.w3.org/2000/svg">
<path fill-rule="evenodd" clip-rule="evenodd" d="M25 7.5C26.6667 7.5 28.3333 8.13333 30 9.4C31.6667 8.13333 33.3333 7.5 35 7.5H50C51.3261 7.5 52.5979 8.02678 53.5355 8.96447C54.4732 9.90215 55 11.1739 55 12.5V45C55 46.3261 54.4732 47.5979 53.5355 48.5355C52.5979 49.4732 51.3261 50 50 50H32.5C32.5 51.38 31.375 52.5 30 52.5C28.625 52.5 27.5 51.375 27.5 50H10C8.67392 50 7.40215 49.4732 6.46447 48.5355C5.52678 47.5979 5 46.3261 5 45V12.5C5 11.1739 5.52678 9.90215 6.46447 8.96447C7.40215 8.02678 8.67392 7.5 10 7.5H25ZM25 12.5H10V45H27.5V15C27.5 13.625 26.375 12.5 25 12.5ZM50 12.5H35C33.625 12.5 32.5 13.625 32.5 15V45H50V12.5Z" fill="white"/>
</svg>
