<svg width="60" height="60" viewBox="0 0 60 60" fill="none" xmlns="http://www.w3.org/2000/svg">
<path d="M20 17.5V12.5C20 11.1739 20.5268 9.90215 21.4645 8.96447C22.4021 8.02678 23.6739 7.5 25 7.5H35C36.3261 7.5 37.5979 8.02678 38.5355 8.96447C39.4732 9.90215 40 11.1739 40 12.5V17.5M30 30V30.025M7.5 22.5C7.5 21.1739 8.02678 19.9021 8.96447 18.9645C9.90215 18.0268 11.1739 17.5 12.5 17.5H47.5C48.8261 17.5 50.0979 18.0268 51.0355 18.9645C51.9732 19.9021 52.5 21.1739 52.5 22.5V45C52.5 46.3261 51.9732 47.5979 51.0355 48.5355C50.0979 49.4732 48.8261 50 47.5 50H12.5C11.1739 50 9.90215 49.4732 8.96447 48.5355C8.02678 47.5979 7.5 46.3261 7.5 45V22.5Z" stroke="white" stroke-width="5" stroke-linecap="round" stroke-linejoin="round"/>
<path d="M7.5 32.5C14.479 36.0167 22.1851 37.8486 30 37.8486C37.8149 37.8486 45.521 36.0167 52.5 32.5" stroke="white" stroke-width="5" stroke-linecap="round" stroke-linejoin="round"/>
</svg>
