<svg width="60" height="60" viewBox="0 0 60 60" fill="none" xmlns="http://www.w3.org/2000/svg">
<path fill-rule="evenodd" clip-rule="evenodd" d="M9.587 11.1771C9.587 9.29143 10.1056 8.19857 10.7313 7.57714C11.357 6.95571 12.4499 6.42857 14.3313 6.42857C16.217 6.42857 17.3099 6.95143 17.9313 7.57285C18.5613 8.19857 19.0799 9.29143 19.0799 11.1729C19.0799 13.0543 18.5613 14.1514 17.9356 14.7771C17.3099 15.4029 16.217 15.9214 14.3356 15.9214C12.4499 15.9214 11.357 15.4029 10.7356 14.7771C10.1056 14.1514 9.587 13.0629 9.587 11.1771ZM14.3356 1.07143C11.4641 1.07143 8.84557 1.88571 6.94272 3.78857C5.04415 5.68714 4.22986 8.30571 4.22986 11.1771C4.22986 14.0486 5.04415 16.6629 6.94272 18.5657L7.00272 18.6214C6.12557 19.2157 5.33415 19.9143 4.62843 20.7171C2.30129 23.37 1.07129 26.9743 1.07129 30.9086C1.07129 31.4769 1.29705 32.0219 1.69892 32.4238C2.10078 32.8257 2.64583 33.0514 3.21415 33.0514H25.457C26.0253 33.0514 26.5704 32.8257 26.9722 32.4238C27.3741 32.0219 27.5999 31.4769 27.5999 30.9086C27.5999 26.9743 26.3656 23.3657 24.0384 20.7171C23.3364 19.9234 22.5389 19.2195 21.6641 18.6214L21.7241 18.5657C23.6227 16.6671 24.437 14.0443 24.437 11.1771C24.437 8.30571 23.6227 5.68714 21.7241 3.78857C19.8213 1.88571 17.2027 1.07143 14.3356 1.07143ZM36.6213 3.61285C35.9109 3.59183 35.2212 3.85387 34.704 4.34133C34.1868 4.82879 33.8845 5.50174 33.8634 6.21214C33.8424 6.92254 34.1044 7.6122 34.5919 8.1294C35.0794 8.6466 35.7523 8.94897 36.4627 8.97C38.6199 9.03 40.7913 9.12428 42.977 9.25285C44.4208 9.33568 45.7838 9.94654 46.8064 10.9692C47.829 11.9918 48.4399 13.3547 48.5227 14.7986C48.6084 16.2271 48.6784 17.6471 48.7327 19.0586C48.7611 19.7684 49.0704 20.4379 49.5924 20.9197C50.1144 21.4015 50.8065 21.6563 51.5163 21.6279C52.2261 21.5994 52.8956 21.2902 53.3774 20.7682C53.8593 20.2462 54.114 19.5541 54.0856 18.8443C54.0284 17.4014 53.957 15.9471 53.8713 14.4814C53.71 11.7292 52.5437 9.13205 50.5939 7.183C48.6441 5.23396 46.0464 4.06874 43.2941 3.90857C41.07 3.77663 38.8441 3.67804 36.617 3.61285M11.147 42.4543C11.1293 42.1028 11.0425 41.7583 10.8916 41.4403C10.7407 41.1224 10.5287 40.8373 10.2676 40.6013C10.0066 40.3653 9.70158 40.183 9.37008 40.0649C9.03857 39.9468 8.68705 39.8951 8.33557 39.9129C7.9841 39.9306 7.63956 40.0174 7.32163 40.1682C7.00369 40.3191 6.71859 40.5312 6.48259 40.7922C6.2466 41.0533 6.06434 41.3583 5.94622 41.6898C5.82809 42.0213 5.77642 42.3728 5.79415 42.7243L5.90129 44.6871C6.06257 47.4393 7.22885 50.0365 9.17868 51.9856C11.1285 53.9346 13.7262 55.0998 16.4784 55.26C18.5927 55.3857 20.6956 55.48 22.787 55.5429C23.4974 55.5644 24.1873 55.303 24.7049 54.8159C25.2225 54.3288 25.5254 53.6561 25.547 52.9457C25.5686 52.2353 25.3071 51.5454 24.82 51.0278C24.333 50.5102 23.6603 50.2073 22.9499 50.1857C20.8958 50.1232 18.8428 50.0318 16.7913 49.9114C15.3489 49.8277 13.9876 49.217 12.9659 48.1954C11.9443 47.1737 11.3336 45.8124 11.2499 44.37L11.147 42.4543ZM42.0599 33.45C41.4341 34.0757 40.9156 35.1643 40.9156 37.05C40.9156 38.9357 41.4341 40.0286 42.0599 40.65C42.6856 41.2714 43.7741 41.7986 45.6599 41.7986C47.5456 41.7986 48.6384 41.2757 49.2599 40.6543C49.8813 40.0329 50.4084 38.9357 50.4084 37.0543C50.4084 35.1686 49.8856 34.0757 49.2641 33.45C48.6427 32.8243 47.5456 32.3057 45.6641 32.3057C43.7784 32.3057 42.6813 32.8243 42.0599 33.45ZM38.2756 29.6614C40.1784 27.7629 42.797 26.9486 45.6641 26.9486C48.5356 26.9486 51.1541 27.7629 53.057 29.6614C54.9556 31.5643 55.7699 34.1829 55.7699 37.05C55.7699 39.9214 54.9556 42.54 53.0527 44.4429L52.997 44.4986C53.8741 45.0929 54.6656 45.7914 55.3713 46.5943C57.6984 49.2429 58.9284 52.8514 58.9284 56.7857C58.9284 57.354 58.7027 57.8991 58.3008 58.3009C57.8989 58.7028 57.3539 58.9286 56.7856 58.9286H34.547C33.9787 58.9286 33.4336 58.7028 33.0318 58.3009C32.6299 57.8991 32.4041 57.354 32.4041 56.7857C32.4041 52.8471 33.6341 49.2429 35.9613 46.5943C36.6699 45.7914 37.4613 45.0929 38.3356 44.4986L38.2756 44.4429C36.377 42.54 35.5627 39.9214 35.5627 37.05C35.5627 34.1786 36.377 31.5643 38.2756 29.6614Z" fill="white"/>
</svg>
