<svg width="120" height="120" viewBox="0 0 120 120" fill="none" xmlns="http://www.w3.org/2000/svg">
<circle cx="60" cy="60" r="60" fill="#012060"/>
<path fill-rule="evenodd" clip-rule="evenodd" d="M39.587 41.1771C39.587 39.2914 40.1056 38.1986 40.7313 37.5771C41.357 36.9557 42.4499 36.4286 44.3313 36.4286C46.217 36.4286 47.3099 36.9514 47.9313 37.5729C48.5613 38.1986 49.0799 39.2914 49.0799 41.1729C49.0799 43.0543 48.5613 44.1514 47.9356 44.7771C47.3099 45.4029 46.217 45.9214 44.3356 45.9214C42.4499 45.9214 41.357 45.4029 40.7356 44.7771C40.1056 44.1514 39.587 43.0629 39.587 41.1771ZM44.3356 31.0714C41.4641 31.0714 38.8456 31.8857 36.9427 33.7886C35.0441 35.6871 34.2299 38.3057 34.2299 41.1771C34.2299 44.0486 35.0441 46.6629 36.9427 48.5657L37.0027 48.6214C36.1256 49.2157 35.3341 49.9143 34.6284 50.7171C32.3013 53.37 31.0713 56.9743 31.0713 60.9086C31.0713 61.4769 31.2971 62.0219 31.6989 62.4238C32.1008 62.8257 32.6458 63.0514 33.2141 63.0514H55.457C56.0253 63.0514 56.5704 62.8257 56.9722 62.4238C57.3741 62.0219 57.5999 61.4769 57.5999 60.9086C57.5999 56.9743 56.3656 53.3657 54.0384 50.7171C53.3364 49.9234 52.5389 49.2195 51.6641 48.6214L51.7241 48.5657C53.6227 46.6671 54.437 44.0443 54.437 41.1771C54.437 38.3057 53.6227 35.6871 51.7241 33.7886C49.8213 31.8857 47.2027 31.0714 44.3356 31.0714ZM66.6213 33.6129C65.9109 33.5918 65.2212 33.8539 64.704 34.3413C64.1868 34.8288 63.8845 35.5017 63.8634 36.2121C63.8424 36.9225 64.1044 37.6122 64.5919 38.1294C65.0794 38.6466 65.7523 38.949 66.4627 38.97C68.6199 39.03 70.7913 39.1243 72.977 39.2529C74.4208 39.3357 75.7838 39.9465 76.8064 40.9692C77.829 41.9918 78.4399 43.3547 78.5227 44.7986C78.6084 46.2271 78.6784 47.6471 78.7327 49.0586C78.7611 49.7684 79.0704 50.4379 79.5924 50.9197C80.1144 51.4015 80.8065 51.6563 81.5163 51.6279C82.2261 51.5994 82.8956 51.2902 83.3774 50.7682C83.8593 50.2462 84.114 49.5541 84.0856 48.8443C84.0284 47.4014 83.957 45.9471 83.8713 44.4814C83.71 41.7292 82.5437 39.1321 80.5939 37.183C78.6441 35.234 76.0464 34.0687 73.2941 33.9086C71.07 33.7766 68.8441 33.678 66.617 33.6129M41.147 72.4543C41.1293 72.1028 41.0425 71.7583 40.8916 71.4403C40.7407 71.1224 40.5287 70.8373 40.2676 70.6013C40.0066 70.3653 39.7016 70.183 39.3701 70.0649C39.0386 69.9468 38.687 69.8951 38.3356 69.9129C37.9841 69.9306 37.6396 70.0174 37.3216 70.1682C37.0037 70.3191 36.7186 70.5312 36.4826 70.7922C36.2466 71.0533 36.0643 71.3583 35.9462 71.6898C35.8281 72.0213 35.7764 72.3728 35.7941 72.7243L35.9013 74.6871C36.0626 77.4393 37.2288 80.0365 39.1787 81.9856C41.1285 83.9346 43.7262 85.0998 46.4784 85.26C48.5927 85.3857 50.6956 85.48 52.787 85.5429C53.4974 85.5644 54.1873 85.303 54.7049 84.8159C55.2225 84.3288 55.5254 83.6561 55.547 82.9457C55.5686 82.2353 55.3071 81.5454 54.82 81.0278C54.333 80.5102 53.6603 80.2073 52.9499 80.1857C50.8958 80.1232 48.8428 80.0318 46.7913 79.9114C45.3489 79.8277 43.9876 79.217 42.9659 78.1954C41.9443 77.1737 41.3336 75.8124 41.2499 74.37L41.147 72.4543ZM72.0599 63.45C71.4341 64.0757 70.9156 65.1643 70.9156 67.05C70.9156 68.9357 71.4341 70.0286 72.0599 70.65C72.6856 71.2714 73.7741 71.7986 75.6599 71.7986C77.5456 71.7986 78.6384 71.2757 79.2599 70.6543C79.8813 70.0329 80.4084 68.9357 80.4084 67.0543C80.4084 65.1686 79.8856 64.0757 79.2641 63.45C78.6427 62.8243 77.5456 62.3057 75.6641 62.3057C73.7784 62.3057 72.6813 62.8243 72.0599 63.45ZM68.2756 59.6614C70.1784 57.7629 72.797 56.9486 75.6641 56.9486C78.5356 56.9486 81.1541 57.7629 83.057 59.6614C84.9556 61.5643 85.7699 64.1829 85.7699 67.05C85.7699 69.9214 84.9556 72.54 83.0527 74.4429L82.997 74.4986C83.8741 75.0929 84.6656 75.7914 85.3713 76.5943C87.6984 79.2429 88.9284 82.8514 88.9284 86.7857C88.9284 87.354 88.7027 87.8991 88.3008 88.3009C87.8989 88.7028 87.3539 88.9286 86.7856 88.9286H64.547C63.9787 88.9286 63.4336 88.7028 63.0318 88.3009C62.6299 87.8991 62.4041 87.354 62.4041 86.7857C62.4041 82.8471 63.6341 79.2429 65.9613 76.5943C66.6699 75.7914 67.4613 75.0929 68.3356 74.4986L68.2756 74.4429C66.377 72.54 65.5627 69.9214 65.5627 67.05C65.5627 64.1786 66.377 61.5643 68.2756 59.6614Z" fill="white"/>
</svg>
