<svg width="120" height="120" viewBox="0 0 120 120" fill="none" xmlns="http://www.w3.org/2000/svg">
<circle cx="60" cy="60" r="60" fill="#012060"/>
<path d="M81.1388 38.8613L87.4237 40.1175C87.7612 40.185 88.0387 40.4325 88.1362 40.7663C88.1855 40.9284 88.1899 41.1008 88.1489 41.2652C88.108 41.4297 88.0233 41.5799 87.9038 41.7L82.755 46.8525C82.1381 47.466 81.3038 47.811 80.4338 47.8125H76.1625L65.4375 58.5413C65.6421 59.3138 65.6797 60.1212 65.5479 60.9094C65.416 61.6977 65.1177 62.4488 64.6728 63.1127C64.2279 63.7767 63.6466 64.3381 62.9676 64.7598C62.2887 65.1815 61.5277 65.4536 60.7353 65.5581C59.943 65.6626 59.1375 65.597 58.3724 65.3657C57.6074 65.1345 56.9004 64.7429 56.2986 64.217C55.6968 63.6911 55.214 63.043 54.8823 62.3158C54.5506 61.5887 54.3777 60.7992 54.375 60C54.3748 59.1368 54.5733 58.2852 54.955 57.5111C55.3368 56.7369 55.8916 56.061 56.5764 55.5357C57.2613 55.0103 58.0579 54.6496 58.9045 54.4815C59.7512 54.3134 60.6251 54.3424 61.4587 54.5663L72.1875 43.8338V39.57C72.1875 38.7 72.5325 37.8638 73.1475 37.2488L78.3 32.0963C78.4201 31.9767 78.5704 31.892 78.7348 31.8511C78.8992 31.8101 79.0716 31.8145 79.2337 31.8638C79.5675 31.9613 79.815 32.2388 79.8825 32.5763L81.1388 38.8613Z" fill="white"/>
<path d="M37.4996 60C37.5035 63.2174 38.1973 66.3965 39.5342 69.3229C40.8712 72.2493 42.8202 74.8549 45.2498 76.9641C47.6794 79.0732 50.5331 80.6367 53.6184 81.5492C56.7036 82.4617 59.9487 82.7019 63.1347 82.2536C66.3206 81.8053 69.3734 80.6789 72.0871 78.9505C74.8007 77.2221 77.1121 74.9318 78.8654 72.2341C80.6186 69.5364 81.7729 66.4941 82.2504 63.3123C82.7279 60.1306 82.5175 56.8835 81.6334 53.79C81.5092 53.4286 81.4599 53.0457 81.4885 52.6646C81.5171 52.2836 81.6229 51.9123 81.7995 51.5734C81.9762 51.2346 82.2199 50.9352 82.516 50.6935C82.812 50.4519 83.1541 50.273 83.5215 50.1678C83.8888 50.0626 84.2738 50.0332 84.6528 50.0815C85.0319 50.1298 85.3972 50.2548 85.7264 50.4487C86.0557 50.6427 86.342 50.9017 86.568 51.2098C86.7939 51.518 86.9548 51.8689 87.0409 52.2412C88.7528 58.232 88.4276 64.6215 86.1163 70.4075C83.805 76.1935 79.6383 81.0484 74.2699 84.2108C68.9015 87.3731 62.6353 88.6638 56.4542 87.8805C50.2731 87.0971 44.5269 84.284 40.1171 79.8825C35.7121 75.4738 32.896 69.7271 32.1109 63.5446C31.3257 57.362 32.616 51.0938 35.7792 45.724C38.9424 40.3542 43.7993 36.187 49.5873 33.8765C55.3754 31.5661 61.7669 31.2432 67.7584 32.9587C68.4718 33.1673 69.0736 33.6498 69.4324 34.3007C69.7911 34.9516 69.8777 35.7181 69.673 36.4327C69.4684 37.1472 68.9892 37.7517 68.3402 38.114C67.6913 38.4763 66.9252 38.567 66.2096 38.3662C62.8593 37.4042 59.3312 37.2337 55.9037 37.8682C52.4762 38.5028 49.243 39.925 46.4591 42.0228C43.6752 44.1205 41.4168 46.8363 39.862 49.9561C38.3071 53.0759 37.4984 56.5142 37.4996 60Z" fill="white"/>
<path d="M48.7498 60C48.7501 62.0497 49.3099 64.0605 50.369 65.8154C51.428 67.5703 52.9461 69.0028 54.7595 69.9583C56.5729 70.9138 58.6127 71.3561 60.659 71.2374C62.7052 71.1188 64.6803 70.4437 66.3711 69.285C68.0616 68.1234 69.4023 66.5217 70.2483 64.6532C71.0943 62.7847 71.4134 60.7205 71.1711 58.6838C71.1055 58.1895 71.1729 57.6867 71.3663 57.2272C71.5596 56.7676 71.872 56.3679 72.2712 56.0692C72.6703 55.7705 73.1419 55.5836 73.6373 55.5277C74.1328 55.4718 74.6342 55.549 75.0898 55.7513C75.5454 55.9509 75.9399 56.2678 76.2331 56.6697C76.5262 57.0715 76.7076 57.544 76.7586 58.0388C77.1661 61.5191 76.48 65.04 74.7955 68.1128C73.1111 71.1855 70.5119 73.6577 67.3586 75.1861C64.2054 76.7146 60.6546 77.2235 57.1989 76.6422C53.7433 76.061 50.5544 74.4184 48.0747 71.9425C45.595 69.4666 43.9476 66.2801 43.3611 62.8254C42.7746 59.3707 43.2781 55.8191 44.8018 52.6635C46.3254 49.5079 48.7936 46.905 51.8638 45.2159C54.934 43.5268 58.4538 42.8353 61.9348 43.2375C62.3076 43.2721 62.6697 43.3807 62.9999 43.5571C63.3301 43.7334 63.6217 43.9739 63.8578 44.2644C64.0938 44.5549 64.2695 44.8896 64.3745 45.2489C64.4796 45.6082 64.5118 45.9849 64.4694 46.3568C64.4269 46.7287 64.3107 47.0884 64.1274 47.4148C63.9442 47.7412 63.6976 48.0278 63.4022 48.2577C63.1067 48.4875 62.7684 48.6561 62.407 48.7536C62.0455 48.851 61.6683 48.8753 61.2973 48.825C59.7211 48.642 58.1239 48.7945 56.6107 49.2726C55.0976 49.7506 53.7027 50.5434 52.5176 51.5988C51.3326 52.6542 50.3843 53.9484 49.7349 55.3963C49.0855 56.8442 48.7498 58.4131 48.7498 60Z" fill="white"/>
</svg>
