<svg width="60" height="60" viewBox="0 0 60 60" fill="none" xmlns="http://www.w3.org/2000/svg">
<path d="M30 55L25 40H5L10 55H30ZM30 55H40M30 32.5V31.25C30 26.535 30 24.18 28.535 22.715C27.07 21.25 24.715 21.25 20 21.25C15.285 21.25 12.93 21.25 11.465 22.715C10 24.18 10 26.535 10 31.25V32.5" stroke="white" stroke-width="4.5" stroke-linecap="round" stroke-linejoin="round"/>
<path d="M47.5 32.5C47.5 33.8261 46.9732 35.0979 46.0355 36.0355C45.0979 36.9732 43.8261 37.5 42.5 37.5C41.1739 37.5 39.9021 36.9732 38.9645 36.0355C38.0268 35.0979 37.5 33.8261 37.5 32.5C37.5 31.1739 38.0268 29.9021 38.9645 28.9645C39.9021 28.0268 41.1739 27.5 42.5 27.5C43.8261 27.5 45.0979 28.0268 46.0355 28.9645C46.9732 29.9021 47.5 31.1739 47.5 32.5ZM25 10C25 11.3261 24.4732 12.5979 23.5355 13.5355C22.5979 14.4732 21.3261 15 20 15C18.6739 15 17.4021 14.4732 16.4645 13.5355C15.5268 12.5979 15 11.3261 15 10C15 8.67392 15.5268 7.40215 16.4645 6.46447C17.4021 5.52678 18.6739 5 20 5C21.3261 5 22.5979 5.52678 23.5355 6.46447C24.4732 7.40215 25 8.67392 25 10Z" stroke="white" stroke-width="4.5"/>
<path d="M35 43.75H50C51.3261 43.75 52.5979 44.2768 53.5355 45.2145C54.4732 46.1521 55 47.4239 55 48.75V50C55 51.3261 54.4732 52.5979 53.5355 53.5355C52.5979 54.4732 51.3261 55 50 55H47.5" stroke="white" stroke-width="4.5" stroke-linecap="round"/>
</svg>
