<svg width="20" height="20" viewBox="0 0 20 20" fill="none" xmlns="http://www.w3.org/2000/svg">
<path fill-rule="evenodd" clip-rule="evenodd" d="M12.9165 10.0498C12.9165 11.4306 11.7973 12.5498 10.4165 12.5498C9.03567 12.5498 7.9165 11.4306 7.9165 10.0498C7.9165 8.66897 9.03567 7.5498 10.4165 7.5498C11.7973 7.5498 12.9165 8.66897 12.9165 10.0498M10.4165 14.2165C8.11567 14.2165 6.24984 12.3515 6.24984 10.0498C6.24984 7.74897 8.11567 5.88314 10.4165 5.88314C12.7182 5.88314 14.5832 7.74897 14.5832 10.0498C14.5832 12.3515 12.7182 14.2165 10.4165 14.2165M10.4165 3.7998C6.96484 3.7998 3.10734 6.6473 1.6665 10.0498C3.10734 13.4523 6.96484 16.2998 10.4165 16.2998C13.8682 16.2998 17.7257 13.4523 19.1665 10.0498C17.7257 6.6473 13.8682 3.7998 10.4165 3.7998" fill="white"/>
</svg>
