<svg width="120" height="120" viewBox="0 0 120 120" fill="none" xmlns="http://www.w3.org/2000/svg">
<circle cx="60" cy="60" r="60" fill="#012060"/>
<path d="M60 35C73.8075 35 85 46.1925 85 60C85 73.8075 73.8075 85 60 85C46.1925 85 35 73.8075 35 60C35 46.1925 46.1925 35 60 35ZM60 40C54.6957 40 49.6086 42.1071 45.8579 45.8579C42.1071 49.6086 40 54.6957 40 60C40 65.3043 42.1071 70.3914 45.8579 74.1421C49.6086 77.8929 54.6957 80 60 80C65.3043 80 70.3914 77.8929 74.1421 74.1421C77.8929 70.3914 80 65.3043 80 60C80 54.6957 77.8929 49.6086 74.1421 45.8579C70.3914 42.1071 65.3043 40 60 40ZM60 45C60.6123 45.0001 61.2033 45.2249 61.6609 45.6318C62.1185 46.0387 62.4109 46.5994 62.4825 47.2075L62.5 47.5V58.965L69.2675 65.7325C69.7159 66.1824 69.9762 66.7861 69.9956 67.421C70.015 68.0558 69.792 68.6743 69.3719 69.1507C68.9518 69.6271 68.3661 69.9258 67.7338 69.986C67.1015 70.0462 66.47 69.8635 65.9675 69.475L65.7325 69.2675L58.2325 61.7675C57.844 61.3786 57.5944 60.8725 57.5225 60.3275L57.5 60V47.5C57.5 46.837 57.7634 46.2011 58.2322 45.7322C58.7011 45.2634 59.337 45 60 45Z" fill="white"/>
</svg>
