<svg width="367" height="79" viewBox="0 0 367 79" fill="none" xmlns="http://www.w3.org/2000/svg">
<path d="M2 78.5099L2 23.0002C2 17.4772 6.47724 13.0001 12.0001 13.0001L325 13.0048C330.523 13.0049 335 17.482 335 23.0048V38.024" stroke="#A5D0F2" stroke-width="4"/>
<path fill-rule="evenodd" clip-rule="evenodd" d="M320.019 24.3938C321.044 23.3687 322.706 23.3687 323.731 24.3938L335 35.6627L346.269 24.3938C347.294 23.3687 348.956 23.3687 349.981 24.3938C351.006 25.419 351.006 27.081 349.981 28.1062L336.856 41.2312C335.831 42.2563 334.169 42.2563 333.144 41.2312L320.019 28.1062C318.994 27.081 318.994 25.419 320.019 24.3938Z" fill="#A5D0F2"/>
<path fill-rule="evenodd" clip-rule="evenodd" d="M320.019 34.3938C321.044 33.3687 322.706 33.3687 323.731 34.3938L335 45.6627L346.269 34.3938C347.294 33.3687 348.956 33.3687 349.981 34.3938C351.006 35.419 351.006 37.081 349.981 38.1062L336.856 51.2312C335.831 52.2563 334.169 52.2563 333.144 51.2312L320.019 38.1062C318.994 37.081 318.994 35.419 320.019 34.3938Z" fill="#A5D0F2"/>
</svg>
