<svg xmlns="http://www.w3.org/2000/svg" fill="none" viewBox="0 9.108 41.60377358490566 41.778" style="max-height: 500px" width="41.60377358490566" height="41.778">
<ellipse fill="#172447" ry="20.6178" rx="20.6643" cy="29.9347" cx="20.6643"/>
<path fill="#F4F4F4" d="M22.4376 39.2969C24.0287 38.1573 25.2112 36.8027 25.9853 35.2332C26.7593 33.6421 27.0603 32.1585 26.8883 30.7824C26.4368 31.1695 25.8778 31.363 25.2112 31.363C24.1577 31.363 23.3084 31.0189 22.6633 30.3309C22.0398 29.6214 21.728 28.7613 21.728 27.7508C21.728 26.7402 22.0721 25.8909 22.7601 25.2029C23.4696 24.5149 24.3082 24.1708 25.2757 24.1708C26.3938 24.1708 27.3183 24.5794 28.0494 25.3964C28.8019 26.192 29.1782 27.396 29.1782 29.0086C29.1782 31.2232 28.6406 33.2981 27.5656 35.2332C26.4905 37.1468 24.8995 38.7271 22.7923 39.9741L22.4376 39.2969ZM13.9232 30.3309C13.2996 29.6214 12.9879 28.7613 12.9879 27.7508C12.9879 26.7402 13.3426 25.8909 14.0522 25.2029C14.7617 24.5149 15.6002 24.1708 16.5678 24.1708C17.6858 24.1708 18.6104 24.5794 19.3414 25.3964C20.094 26.192 20.4702 27.396 20.4702 29.0086C20.4702 31.2232 19.922 33.2981 18.8254 35.2332C17.7503 37.1468 16.1593 38.7271 14.0522 39.9741L13.7296 39.2969C15.3207 38.1573 16.4925 36.8027 17.2451 35.2332C18.0191 33.6421 18.3201 32.1585 18.1481 30.7824C17.6966 31.1695 17.1483 31.363 16.5033 31.363C15.4282 31.363 14.5682 31.0189 13.9232 30.3309Z"/>
</svg>