<svg width="42" height="42" viewBox="0 0 42 42" fill="none" xmlns="http://www.w3.org/2000/svg">
<mask id="mask0_1647_7506" style="mask-type:alpha" maskUnits="userSpaceOnUse" x="0" y="0" width="42" height="42">
<rect width="42" height="42" fill="#D9D9D9"/>
</mask>
<g mask="url(#mask0_1647_7506)">
<path d="M10.5 22.75C10.0042 22.75 9.58854 22.5823 9.25313 22.2469C8.91771 21.9115 8.75 21.4958 8.75 21C8.75 20.5042 8.91771 20.0885 9.25313 19.7531C9.58854 19.4177 10.0042 19.25 10.5 19.25H31.5C31.9958 19.25 32.4115 19.4177 32.7469 19.7531C33.0823 20.0885 33.25 20.5042 33.25 21C33.25 21.4958 33.0823 21.9115 32.7469 22.2469C32.4115 22.5823 31.9958 22.75 31.5 22.75H10.5Z" fill="#1C1B1F"/>
</g>
</svg>
