<svg width="32" height="32" viewBox="0 0 32 32" fill="none" xmlns="http://www.w3.org/2000/svg">
<path d="M22.6665 29.3334C21.5554 29.3334 20.6109 28.9445 19.8332 28.1667C19.0554 27.389 18.6665 26.4445 18.6665 25.3334C18.6665 25.2001 18.6998 24.889 18.7665 24.4001L9.39984 18.9334C9.04428 19.2667 8.63317 19.5281 8.1665 19.7174C7.69984 19.9067 7.19984 20.001 6.6665 20.0001C5.55539 20.0001 4.61095 19.6112 3.83317 18.8334C3.05539 18.0556 2.6665 17.1112 2.6665 16.0001C2.6665 14.889 3.05539 13.9445 3.83317 13.1667C4.61095 12.389 5.55539 12.0001 6.6665 12.0001C7.19984 12.0001 7.69984 12.0947 8.1665 12.2841C8.63317 12.4734 9.04428 12.7343 9.39984 13.0667L18.7665 7.60008C18.7221 7.44453 18.6945 7.29475 18.6838 7.15075C18.6732 7.00675 18.6674 6.84541 18.6665 6.66675C18.6665 5.55564 19.0554 4.61119 19.8332 3.83341C20.6109 3.05564 21.5554 2.66675 22.6665 2.66675C23.7776 2.66675 24.7221 3.05564 25.4998 3.83341C26.2776 4.61119 26.6665 5.55564 26.6665 6.66675C26.6665 7.77786 26.2776 8.7223 25.4998 9.50008C24.7221 10.2779 23.7776 10.6667 22.6665 10.6667C22.1332 10.6667 21.6332 10.5721 21.1665 10.3827C20.6998 10.1934 20.2887 9.93253 19.9332 9.60008L10.5665 15.0667C10.6109 15.2223 10.6389 15.3725 10.6505 15.5174C10.6621 15.6623 10.6674 15.8232 10.6665 16.0001C10.6656 16.177 10.6603 16.3383 10.6505 16.4841C10.6407 16.6299 10.6127 16.7796 10.5665 16.9334L19.9332 22.4001C20.2887 22.0667 20.6998 21.8059 21.1665 21.6174C21.6332 21.429 22.1332 21.3343 22.6665 21.3334C23.7776 21.3334 24.7221 21.7223 25.4998 22.5001C26.2776 23.2779 26.6665 24.2223 26.6665 25.3334C26.6665 26.4445 26.2776 27.389 25.4998 28.1667C24.7221 28.9445 23.7776 29.3334 22.6665 29.3334Z" fill="black"/>
</svg>
