<svg width="264" height="110" viewBox="0 0 264 110" fill="none" xmlns="http://www.w3.org/2000/svg">
<path d="M2 0V97.9778C2 103.509 6.49041 107.99 12.0217 107.978L222.022 107.521C227.536 107.509 232 103.036 232 97.5214V66.4996" stroke="#A5D0F2" stroke-width="4"/>
<path fill-rule="evenodd" clip-rule="evenodd" d="M217.019 78.6057C218.044 79.6309 219.706 79.6309 220.731 78.6057L232 67.3369L243.269 78.6057C244.294 79.6309 245.956 79.6309 246.981 78.6057C248.006 77.5806 248.006 75.9186 246.981 74.8934L233.856 61.7684C232.831 60.7433 231.169 60.7433 230.144 61.7684L217.019 74.8934C215.994 75.9186 215.994 77.5806 217.019 78.6057Z" fill="#A5D0F2"/>
<path fill-rule="evenodd" clip-rule="evenodd" d="M217.019 67.6057C218.044 68.6309 219.706 68.6309 220.731 67.6057L232 56.3369L243.269 67.6057C244.294 68.6309 245.956 68.6309 246.981 67.6057C248.006 66.5806 248.006 64.9186 246.981 63.8934L233.856 50.7684C232.831 49.7433 231.169 49.7433 230.144 50.7684L217.019 63.8934C215.994 64.9186 215.994 66.5806 217.019 67.6057Z" fill="#A5D0F2"/>
</svg>
