<svg width="264" height="110" viewBox="0 0 264 110" fill="none" xmlns="http://www.w3.org/2000/svg">
<path d="M2 109.978V12C2 6.4687 6.49041 1.98803 12.0217 2.00005L222.022 2.45651C227.536 2.46849 232 6.94212 232 12.4565V43.4783" stroke="#A5D0F2" stroke-width="4"/>
<path fill-rule="evenodd" clip-rule="evenodd" d="M217.019 31.3721C218.044 30.347 219.706 30.347 220.731 31.3721L232 42.641L243.269 31.3721C244.294 30.347 245.956 30.347 246.981 31.3721C248.006 32.3972 248.006 34.0593 246.981 35.0844L233.856 48.2094C232.831 49.2346 231.169 49.2346 230.144 48.2094L217.019 35.0844C215.994 34.0593 215.994 32.3972 217.019 31.3721Z" fill="#A5D0F2"/>
<path fill-rule="evenodd" clip-rule="evenodd" d="M217.019 42.3721C218.044 41.347 219.706 41.347 220.731 42.3721L232 53.641L243.269 42.3721C244.294 41.347 245.956 41.347 246.981 42.3721C248.006 43.3972 248.006 45.0593 246.981 46.0844L233.856 59.2094C232.831 60.2346 231.169 60.2346 230.144 59.2094L217.019 46.0844C215.994 45.0593 215.994 43.3972 217.019 42.3721Z" fill="#A5D0F2"/>
</svg>
